<svg viewBox="0 0 340 340" xmlns="http://www.w3.org/2000/svg">
  <path fill="#b5aeae52" d="M212 283a3 3 0 005-1v-1a3 3 0 00-6-4v1a3 3 0 001 5z"/>
  <path fill="#b5aeae52" d="M246 239a131 131 0 00-14-40 137 137 0 00-15-22 178 178 0 01-16-24 3 3 0 00-6 4l6 10a31 31 0 00-17 6v-1a3 3 0 10-6 4 202 202 0 0015 21s19 23 23 53a46 46 0 01-1 18 3 3 0 107 2v-5c5 3 13 10 15 19a57 57 0 01-23 29c1-6 1-15-3-26a3 3 0 00-6-1 40 40 0 01-34 13h-1a54 54 0 01-39-23 53 53 0 01-4-8 51 51 0 01-2-35c3-13 11-24 23-35a248 248 0 0023-23 76 76 0 0016-26 13 13 0 009-22 13 13 0 001-19 13 13 0 000-19 13 13 0 00-1-20c7-14 21-24 29-29a10 10 0 001-16l-3-2a15 15 0 00-16-2 68 68 0 00-16 12V13a3 3 0 00-4-3 3 3 0 00-3 3v18a47 47 0 01-16-10v-8a3 3 0 00-6 0v54a13 13 0 00-9 22 13 13 0 000 19 13 13 0 000 18 13 13 0 001 21 90 90 0 01-6 9l-22 23c-1 1-22 23-31 55a76 76 0 00-3 28 3 3 0 000 1 73 73 0 0020 43l4 4c12 10 26 16 43 19a124 124 0 0019 1 80 80 0 0029-6 65 65 0 0037-38 79 79 0 003-10c1-6 2-20 0-36a3 3 0 00-1-1zm-75 67c-2 11-10 15-12 16-14-3-25-8-35-15a34 34 0 0020-9 62 62 0 0025 8h2zm-32-12c-9 7-20 7-23 6a65 65 0 01-16-30 40 40 0 0018 4l4-1a58 58 0 003 7 60 60 0 0014 14zm4-101l-3 4a52 52 0 00-5-17l15-17a38 38 0 016 18l-13 12zm23-22l-4 4a44 44 0 00-7-17 89 89 0 006-9h18a69 69 0 01-13 22zm-5-41h16a44 44 0 00-4 12h-12a6 6 0 110-12zm26 12h-7a32 32 0 015-12h2a6 6 0 110 12zm7-25a6 6 0 01-6 6h-18a22 22 0 015-12h13a6 6 0 016 6zm-10-13a35 35 0 015-12 6 6 0 01-1 12zm-11-19a59 59 0 017-12h8a6 6 0 010 12zm-5-33a49 49 0 0016 9v6h-16zm42-25a9 9 0 018 0l4 3a3 3 0 01-1 4 101 101 0 00-15 12 38 38 0 010-17l4-2zm-12 7a47 47 0 002 18 62 62 0 00-9 14V41a70 70 0 017-7zm-14 4v15a47 47 0 01-16-10V30a49 49 0 0016 8zm-28 41a6 6 0 016-6h10a68 68 0 00-6 12h-4a6 6 0 01-6-6zm0 19a6 6 0 016-6h19a40 40 0 00-4 12h-15a6 6 0 01-6-6zm11 13a28 28 0 00-4 12h-1a6 6 0 110-12zm-37 75a43 43 0 013 18 78 78 0 00-13 20 41 41 0 00-9-11 142 142 0 0119-27zm-29 49a110 110 0 016-16 33 33 0 0110 16 58 58 0 002 32c-12 0-18-4-20-6a69 69 0 012-26zm77 88h-8a29 29 0 008-17 47 47 0 0028-11c3 12 0 20-1 22a74 74 0 01-27 6zm38-99a135 135 0 00-10-20c5-2 13-3 21-1a124 124 0 0110 26 36 36 0 00-21-5zm-10-50l5 7h1a133 133 0 0110 14 44 44 0 00-20 3l-3-5v-1l-11-13a25 25 0 0118-5zm17 83a54 54 0 000-8 109 109 0 00-5-19 28 28 0 0122 11c2 15 2 26 0 33-5-9-13-14-17-17z"/>
</svg>
